<svg width="1200" height="340" viewBox="0 0 1200 340" fill="none" xmlns="http://www.w3.org/2000/svg">
  <rect width="1200" height="340" fill="#F5F5F5"/>
  <g stroke="#2E2E2E" stroke-width="3" stroke-linecap="round" stroke-linejoin="round" fill="none" opacity="0.9">
    <line x1="40" y1="300" x2="1160" y2="300"/>

    <g transform="translate(70,55)">
      <circle cx="35" cy="40" r="22"/>
      <rect x="14" y="66" width="42" height="98" rx="20"/>
      <line x1="35" y1="102" x2="10" y2="136"/>
      <line x1="35" y1="102" x2="60" y2="136"/>
      <line x1="25" y1="164" x2="18" y2="238"/>
      <line x1="45" y1="164" x2="52" y2="238"/>
    </g>

    <g transform="translate(180,62)">
      <circle cx="35" cy="38" r="22"/>
      <rect x="11" y="62" width="48" height="106" rx="22" fill="#FFED00" stroke="#C7B600"/>
      <line x1="35" y1="98" x2="0" y2="130"/>
      <line x1="35" y1="98" x2="70" y2="130"/>
      <line x1="24" y1="168" x2="18" y2="236"/>
      <line x1="46" y1="168" x2="54" y2="236"/>
    </g>

    <g transform="translate(320,40)">
      <circle cx="35" cy="40" r="22"/>
      <rect x="12" y="64" width="46" height="120" rx="22"/>
      <line x1="35" y1="102" x2="4" y2="130"/>
      <line x1="35" y1="102" x2="66" y2="130"/>
      <line x1="22" y1="184" x2="15" y2="250"/>
      <line x1="48" y1="184" x2="55" y2="250"/>
    </g>

    <g transform="translate(480,60)">
      <circle cx="35" cy="38" r="22"/>
      <rect x="12" y="62" width="46" height="108" rx="22"/>
      <line x1="35" y1="95" x2="8" y2="124"/>
      <line x1="35" y1="95" x2="62" y2="124"/>
      <line x1="22" y1="170" x2="16" y2="238"/>
      <line x1="48" y1="170" x2="54" y2="238"/>
      <rect x="6" y="110" width="15" height="22" rx="2" fill="#FFED00" stroke="#C7B600"/>
    </g>

    <g transform="translate(620,52)">
      <circle cx="35" cy="40" r="22"/>
      <rect x="12" y="64" width="46" height="114" rx="22" fill="#FFED00" stroke="#C7B600"/>
      <line x1="35" y1="102" x2="6" y2="132"/>
      <line x1="35" y1="102" x2="64" y2="132"/>
      <line x1="22" y1="178" x2="16" y2="244"/>
      <line x1="48" y1="178" x2="54" y2="244"/>
    </g>

    <g transform="translate(770,45)">
      <circle cx="35" cy="40" r="22"/>
      <rect x="12" y="64" width="46" height="118" rx="22"/>
      <line x1="35" y1="102" x2="7" y2="136"/>
      <line x1="35" y1="102" x2="63" y2="136"/>
      <line x1="22" y1="182" x2="16" y2="248"/>
      <line x1="48" y1="182" x2="54" y2="248"/>
    </g>

    <g transform="translate(920,58)">
      <circle cx="35" cy="38" r="22"/>
      <rect x="12" y="62" width="46" height="110" rx="22"/>
      <line x1="35" y1="95" x2="8" y2="126"/>
      <line x1="35" y1="95" x2="62" y2="126"/>
      <line x1="22" y1="172" x2="16" y2="240"/>
      <line x1="48" y1="172" x2="54" y2="240"/>
    </g>

    <g transform="translate(1040,50)">
      <circle cx="35" cy="40" r="22"/>
      <rect x="12" y="64" width="46" height="116" rx="22" fill="#FFED00" stroke="#C7B600"/>
      <line x1="35" y1="102" x2="8" y2="134"/>
      <line x1="35" y1="102" x2="62" y2="134"/>
      <line x1="22" y1="180" x2="16" y2="246"/>
      <line x1="48" y1="180" x2="54" y2="246"/>
    </g>
  </g>
</svg>
